Coordinates
version=1
nRows=4
nColumns=107
inDegrees=yes

Units are S.I. units (second, meters, Newtons, ...)
If the header above contains a line with 'inDegrees', this indicates whether rotational values are in degrees (yes) or radians (no).

endheader
time	sternoclavicular_r2	sternoclavicular_r3	unrotscap_r3	unrotscap_r2	acromioclavicular_r2	acromioclavicular_r3	acromioclavicular_r1	unrothum_r1	unrothum_r3	unrothum_r2	elv_angle	shoulder_elv	shoulder1_r2	shoulder_rot	elbow_flexion	pro_sup	deviation	flexion	proximal_distal_r1	proximal_distal_r3	cmc_flexion	cmc_abduction	mp_flexion	ip_flexion	mcp2_flexion	mcp2_abduction	pm2_flexion	md2_flexion	mcp3_flexion	mcp3_abduction	pm3_flexion	md3_flexion	mcp4_flexion	mcp4_abduction	pm4_flexion	md4_flexion	mcp5_flexion	mcp5_abduction	pm5_flexion	md5_flexion	bicpt_tx	bicpt_ty	bicpt_tz	bicpt2_tx	bicpt2_ty	bicpt2_tz	ptpt_tx	ptpt_ty	ptpt_tz	FCUpt_tx	FCUpt_ty	FCUpt_tz	EDCpt_tx	EDCpt_ty	EDCpt_tz	APLpt_tx	APLpt_ty	APLpt_tz	FPLpt_tx	FPLpt_ty	FPLpt_tz	FPLpt2_tx	FPLpt2_ty	FPLpt2_tz	PEC1pt2_tx	PEC1pt2_ty	PEC1pt2_tz	PEC1pt3_tx	PEC1pt3_ty	PEC1pt3_tz	PEC2pt2_tx	PEC2pt2_ty	PEC2pt2_tz	PEC2pt3_tx	PEC2pt3_ty	PEC2pt3_tz	PEC3pt2_tx	PEC3pt2_ty	PEC3pt2_tz	PEC3pt3_tx	PEC3pt3_ty	PEC3pt3_tz	DELT2pt2a_tx	DELT2pt2a_ty	DELT2pt2a_tz	DELT2pt2_tx	DELT2pt2_ty	DELT2pt2_tz	LAT1pt2_tx	LAT1pt2_ty	LAT1pt2_tz	LAT1pt3_tx	LAT1pt3_ty	LAT1pt3_tz	LAT2pt2_tx	LAT2pt2_ty	LAT2pt2_tz	LAT2pt3_tx	LAT2pt3_ty	LAT2pt3_tz	LAT3pt2_tx	LAT3pt2_ty	LAT3pt2_tz	LAT3pt3_tx	LAT3pt3_ty	LAT3pt3_tz
      1.60000000	     -0.32631050	      0.13820973	     -0.13820973	      0.32631050	     -0.06607124	      0.53396452	      0.24001338	     -0.24001338	     -0.53396452	      0.06607124	     98.17205071	     77.25691239	     -1.71342552	    -19.81095935	     30.97684655	     58.89133808	      0.20244244	     -0.39378404	      0.24119819	     -0.19689202	     32.82415596	    -12.68952833	     -7.84147166	      2.24778762	    -11.20503313	     10.78500425	     28.41501878	      8.71310964	     -6.91929320	     -2.24180001	     15.54714265	     16.70239023	     -2.17276839	     -2.36809847	      4.70019180	     23.10649580	     -1.85650564	    -13.81698828	      3.29609302	      5.20532076	      0.00092462	     -0.03115042	     -0.00487188	      0.01620149	     -0.01861501	     -0.00520317	      0.00319859	     -0.06771369	     -0.00479401	      0.00973727	     -0.18305141	     -0.00038615	     -0.00706694	      0.00220379	     -0.00008591	      0.00027304	      0.00010921	      0.00054607	      0.00034949	      0.00104846	      0.00058976	     -0.00001159	     -0.00022204	     -0.00026645	      0.00253231	      0.00888455	      0.00618056	     -0.00828366	      0.02000097	     -0.01897088	      0.00253231	      0.00888455	      0.00618056	      0.00055797	      0.01854167	     -0.00974296	      0.00398898	      0.00494059	      0.01606709	      0.00000000	      0.00798385	      0.00000000	     -0.00725357	     -0.03352094	     -0.00658417	      0.01366713	     -0.00042613	     -0.00323261	     -0.00090133	      0.01510803	     -0.00618056	      0.00248939	      0.02180364	     -0.01802663	     -0.00605180	      0.01309077	     -0.00553675	     -0.01261864	      0.02764083	     -0.03094571	     -0.02369214	      0.01463591	     -0.00742525	     -0.01570892	      0.03193288	     -0.03867141
      1.63333333	     -0.32609401	      0.13811803	     -0.13811803	      0.32609401	     -0.06602740	      0.53361025	      0.23985414	     -0.23985414	     -0.53361025	      0.06602740	     98.16097653	     77.20565583	     -1.71323224	    -19.95851863	     31.08563593	     59.17330317	      0.20754996	     -0.39083771	      0.24641576	     -0.19541885	     32.66592681	    -12.22630336	     -8.32197575	      2.19597924	    -11.12614400	     10.90733779	     28.78431967	      8.88526308	     -6.47714499	     -2.05946391	     16.15886817	     16.90795249	     -1.35886777	     -2.31680495	      5.62420175	     23.33652331	      0.11329891	    -13.88627236	      3.73399713	      5.18524369	      0.00092822	     -0.03116289	     -0.00487389	      0.01618974	     -0.01864457	     -0.00516555	      0.00317776	     -0.06772716	     -0.00481673	      0.00976731	     -0.18304402	     -0.00038411	     -0.00710078	      0.00221692	     -0.00009084	      0.00027196	      0.00010878	      0.00054391	      0.00034811	      0.00104432	      0.00058743	     -0.00001146	     -0.00022384	     -0.00026861	      0.00253063	      0.00887866	      0.00617646	     -0.00827817	      0.01998770	     -0.01895829	      0.00253063	      0.00887866	      0.00617646	      0.00055760	      0.01852937	     -0.00973650	      0.00398706	      0.00493731	      0.01606248	      0.00000000	      0.00797318	      0.00000000	     -0.00724876	     -0.03349870	     -0.00657532	      0.01375237	     -0.00043066	     -0.00328373	     -0.00090073	      0.01509801	     -0.00617646	      0.00248774	      0.02178917	     -0.01801467	     -0.00604778	      0.01308208	     -0.00553308	     -0.01261027	      0.02762249	     -0.03092518	     -0.02367642	      0.01462619	     -0.00742033	     -0.01569850	      0.03191170	     -0.03864575
      1.66666667	     -0.32814766	      0.13898786	     -0.13898786	      0.32814766	     -0.06644323	      0.53697078	      0.24136467	     -0.24136467	     -0.53697078	      0.06644323	     97.89692012	     77.69187497	     -1.70862358	    -17.87327456	     30.91987686	     60.11002822	      0.27013633	     -0.30894100	      0.30688370	     -0.15447050	     35.35957662	    -13.01911016	    -10.70965456	      2.47007026	    -11.23831072	     11.36567463	     29.59397695	      9.76396841	     -5.12875459	     -1.64175721	     17.15824414	     16.99516967	      0.67059821	     -2.16435975	      8.04713245	     22.08171561	      6.35260316	    -13.89742742	     -0.61508887	      5.18097617	      0.00092273	     -0.03114389	     -0.00487083	      0.01614941	     -0.01859954	     -0.00503976	      0.00310855	     -0.06777192	     -0.00489219	      0.00986729	     -0.18301931	     -0.00037691	     -0.00721319	      0.00226070	     -0.00010753	      0.00023616	      0.00009447	      0.00047233	      0.00030229	      0.00090687	      0.00051011	     -0.00001280	     -0.00018938	     -0.00022726	      0.00254657	      0.00893457	      0.00621536	     -0.00833030	      0.02011358	     -0.01907769	      0.00254657	      0.00893457	      0.00621536	      0.00056111	      0.01864607	     -0.00979782	      0.00400524	      0.00496840	      0.01610600	      0.00000000	      0.00807467	      0.00000000	     -0.00729441	     -0.03370967	     -0.00665954	      0.01251886	     -0.00036753	     -0.00259612	     -0.00090641	      0.01519309	     -0.00621536	      0.00250341	      0.02192639	     -0.01812812	     -0.00608587	      0.01316447	     -0.00556792	     -0.01268968	      0.02779645	     -0.03111994	     -0.02382553	      0.01471831	     -0.00746706	     -0.01579736	      0.03211267	     -0.03888913
      1.70000000	     -0.32788821	      0.13887797	     -0.13887797	      0.32788821	     -0.06639069	      0.53654622	      0.24117383	     -0.24117383	     -0.53654622	      0.06639069	     97.86627044	     77.63044757	     -1.70808865	    -18.08293022	     31.06334583	     60.09344392	      0.26792109	     -0.30665638	      0.30485303	     -0.15332819	     34.98793418	    -12.75575875	    -10.94522983	      2.39665201	    -11.48949051	     11.34657061	     29.54049210	      9.77497488	     -5.29699572	     -1.54766453	     17.14809756	     17.01139417	      0.80277056	     -2.06236461	      8.21639519	     22.14213440	      7.20360875	    -13.95640763	     -0.27056622	      5.23949951	      0.00092748	     -0.03116033	     -0.00487348	      0.01615011	     -0.01863851	     -0.00504198	      0.00310977	     -0.06777112	     -0.00489085	      0.00986553	     -0.18301975	     -0.00037703	     -0.00721120	      0.00225993	     -0.00010724	      0.00023500	      0.00009400	      0.00047000	      0.00030080	      0.00090240	      0.00050760	     -0.00001272	     -0.00019461	     -0.00023353	      0.00254456	      0.00892751	      0.00621044	     -0.00832372	      0.02009768	     -0.01906260	      0.00254456	      0.00892751	      0.00621044	      0.00056066	      0.01863132	     -0.00979007	      0.00400295	      0.00496447	      0.01610053	      0.00000000	      0.00806181	      0.00000000	     -0.00728864	     -0.03368302	     -0.00664887	      0.01264542	     -0.00037380	     -0.00266215	     -0.00090569	      0.01518108	     -0.00621044	      0.00250143	      0.02190906	     -0.01811379	     -0.00608106	      0.01315406	     -0.00556352	     -0.01267965	      0.02777447	     -0.03109533	     -0.02380669	      0.01470667	     -0.00746115	     -0.01578487	      0.03208728	     -0.03885838
